<svg width="149" height="66" viewBox="0 0 149 66" fill="none" xmlns="http://www.w3.org/2000/svg">
<g clip-path="url(#clip0_4114_964)">
<path d="M3.95659 55.0112C6.15415 55.0112 7.90317 56.6013 7.90317 58.8799C7.90317 61.1584 6.15415 62.7608 3.95659 62.7608C1.75904 62.7608 0 61.1486 0 58.8799C0 56.6111 1.75904 55.0112 3.95659 55.0112ZM3.95659 55.9006C2.28525 55.9006 1.02987 57.0619 1.02987 58.8823C1.02987 60.7027 2.28525 61.8738 3.95659 61.8738C5.62794 61.8738 6.86077 60.7003 6.86077 58.8823C6.86077 57.0644 5.61541 55.9006 3.95659 55.9006Z" fill="#C62037"/>
<path d="M10.1934 57.6427C10.6069 56.9297 11.3486 56.5696 12.2005 56.5696C13.4885 56.5696 14.5885 57.4124 14.5885 59.1225V62.6849H13.5787V59.2867C13.5787 58.047 12.9172 57.4344 11.8848 57.4344C10.8524 57.4344 10.1934 58.0494 10.1934 59.2867V62.6849H9.17358V56.6676H10.1934V57.6427Z" fill="#C62037"/>
<path d="M21.5846 60.9625C21.2263 61.9377 20.3067 62.7829 18.7932 62.7829C17.0442 62.7829 15.8113 61.5554 15.8113 59.6812C15.8113 57.8069 17.0442 56.5696 18.8709 56.5696C20.6976 56.5696 21.7976 57.7873 21.7976 59.4312C21.7976 59.6174 21.7876 59.8159 21.7525 60.0242H16.8537C16.9089 61.2516 17.7157 61.9646 18.7932 61.9646C19.6777 61.9646 20.239 61.526 20.4871 60.9674H21.5846V60.9625ZM20.7327 59.2965C20.7226 58.1131 19.8707 57.3903 18.7932 57.3903C17.7157 57.3903 16.9439 58.0911 16.8663 59.2965H20.7327Z" fill="#C62037"/>
<path d="M26.4282 55.0896H30.8008V55.8908H27.4481V58.4658H30.0941V59.2547H27.4481V62.6848H26.4282V55.0896Z" fill="#C62037"/>
<path d="M34.4567 56.5696C35.5442 56.5696 36.341 57.1405 36.7219 57.873V56.6676H37.7543V62.6849H36.7219V61.4575C36.341 62.2023 35.5442 62.7829 34.4567 62.7829C32.7979 62.7829 31.52 61.5016 31.52 59.6371C31.52 57.7726 32.7979 56.5671 34.4567 56.5671V56.5696ZM34.6371 57.4345C33.5622 57.4345 32.5624 58.2234 32.5624 59.6371C32.5624 61.0507 33.5596 61.9279 34.6371 61.9279C35.7146 61.9279 36.7219 61.085 36.7219 59.6812C36.7219 58.2773 35.7346 57.4345 34.6371 57.4345Z" fill="#C62037"/>
<path d="M40.458 57.6427C40.8715 56.9297 41.6132 56.5696 42.4651 56.5696C43.3847 56.5696 44.2142 57.0081 44.605 57.873C45.0436 57.062 45.8379 56.5696 46.8352 56.5696C48.1582 56.5696 49.2457 57.4124 49.2457 59.1225V62.6849H48.2359V59.2867C48.2359 58.047 47.5644 57.4344 46.5445 57.4344C45.5247 57.4344 44.8506 58.0494 44.8506 59.2867V62.6849H43.8408V59.2867C43.8408 58.047 43.1793 57.4344 42.1469 57.4344C41.1145 57.4344 40.4555 58.0494 40.4555 59.2867V62.6849H39.4357V56.6676H40.4555V57.6427H40.458Z" fill="#C62037"/>
<path d="M50.7065 55.0236C50.7065 54.6512 51.0097 54.345 51.3906 54.345C51.7715 54.345 52.0847 54.6512 52.0847 55.0236C52.0847 55.396 51.7815 55.7023 51.3906 55.7023C50.9997 55.7023 50.7065 55.4058 50.7065 55.0236ZM50.8744 56.6676H51.8943V62.685H50.8744V56.6676Z" fill="#C62037"/>
<path d="M53.5756 54.5728H54.5955V62.6824H53.5756V54.5728Z" fill="#C62037"/>
<path d="M55.5728 56.6675H56.6928L58.5747 61.5333L60.4916 56.6675H61.544L57.833 65.5024H56.778L58.0008 62.5868L55.5677 56.6675H55.5728Z" fill="#C62037"/>
<path d="M69.4421 55.0112C71.6397 55.0112 73.3887 56.6013 73.3887 58.8799C73.3887 61.1584 71.6397 62.7608 69.4421 62.7608C67.2446 62.7608 65.4855 61.1486 65.4855 58.8799C65.4855 56.6111 67.2446 55.0112 69.4421 55.0112ZM69.4421 55.9006C67.7733 55.9006 66.5154 57.0619 66.5154 58.8823C66.5154 60.7027 67.7708 61.8738 69.4421 61.8738C71.1135 61.8738 72.3463 60.7003 72.3463 58.8823C72.3463 57.0644 71.1009 55.9006 69.4421 55.9006Z" fill="#C62037"/>
<path d="M75.6765 57.6427C76.0899 56.9297 76.8316 56.5696 77.6836 56.5696C78.9715 56.5696 80.0716 57.4124 80.0716 59.1225V62.6849H79.0617V59.2867C79.0617 58.047 78.4002 57.4344 77.3679 57.4344C76.3355 57.4344 75.6765 58.0494 75.6765 59.2867V62.6849H74.6566V56.6676H75.6765V57.6427Z" fill="#C62037"/>
<path d="M87.0676 60.9625C86.7093 61.9377 85.7897 62.7829 84.2762 62.7829C82.5272 62.7829 81.2944 61.5554 81.2944 59.6812C81.2944 57.8069 82.5272 56.5696 84.3539 56.5696C86.1806 56.5696 87.2806 57.7873 87.2806 59.4312C87.2806 59.6174 87.2706 59.8159 87.2355 60.0242H82.3368C82.3919 61.2516 83.1987 61.9646 84.2762 61.9646C85.1608 61.9646 85.722 61.526 85.9676 60.9674H87.0651L87.0676 60.9625ZM86.2157 59.2965C86.2057 58.1131 85.3537 57.3903 84.2762 57.3903C83.1987 57.3903 82.427 58.0911 82.3493 59.2965H86.2157Z" fill="#C62037"/>
<path d="M96.9804 60.5582C96.9804 61.6533 96.0959 62.7608 94.3569 62.7608C92.8885 62.7608 91.7459 62.038 91.7459 60.7885H92.8334C92.8885 61.423 93.3371 61.94 94.3569 61.94C95.3768 61.94 95.9831 61.3593 95.9831 60.6145C95.9831 58.5638 91.7459 60.0436 91.7459 57.1501C91.7459 55.8785 92.7432 55.0137 94.3344 55.0137C95.7576 55.0137 96.6998 55.7364 96.8351 56.9321H95.7025C95.6474 56.3833 95.1537 55.8467 94.2341 55.8467C93.3947 55.8467 92.7432 56.2534 92.7432 57.1183C92.7432 59.2008 96.9804 57.7112 96.9804 60.5606V60.5582Z" fill="#C62037"/>
<path d="M101.198 56.5696C102.934 56.5696 104.302 57.7873 104.302 59.6812C104.302 61.575 102.866 62.7829 101.107 62.7829C99.3484 62.7829 98.093 61.5554 98.093 59.6812C98.093 57.8069 99.4486 56.5696 101.198 56.5696ZM101.165 57.3903C100.078 57.3903 99.1354 58.1695 99.1354 59.6812C99.1354 61.1928 100.02 61.9597 101.107 61.9597C102.195 61.9597 103.247 61.1708 103.247 59.6812C103.247 58.1915 102.25 57.3903 101.163 57.3903H101.165Z" fill="#C62037"/>
<path d="M108.116 57.4786H106.828V62.685H105.796V57.4786H104.999V56.6676H105.796V56.1629C105.796 54.8472 106.49 54.2788 108.026 54.2788V55.0898C107.119 55.0898 106.826 55.4083 106.826 56.1629V56.6676H108.113V57.4786H108.116Z" fill="#C62037"/>
<path d="M112.143 61.874V62.685H111.11C110.091 62.685 109.507 62.2366 109.507 61.139V57.4786H108.71V56.6676H109.507V55.178H110.539V56.6676H112.13V57.4786H110.539V61.139C110.539 61.6755 110.73 61.874 111.301 61.874H112.14H112.143Z" fill="#C62037"/>
<path d="M119.149 59.5487H117.648V62.6823H116.628V55.0872H119.151C120.968 55.0872 121.843 56.0745 121.843 57.3241C121.843 58.4976 121.068 59.5487 119.151 59.5487H119.149ZM119.149 58.7598C120.314 58.7598 120.808 58.1889 120.808 57.3241C120.808 56.4592 120.314 55.8883 119.149 55.8883H117.648V58.7598H119.149Z" fill="#C62037"/>
<path d="M125.812 56.5696C127.548 56.5696 128.916 57.7873 128.916 59.6812C128.916 61.575 127.481 62.7829 125.722 62.7829C123.962 62.7829 122.707 61.5554 122.707 59.6812C122.707 57.8069 124.063 56.5696 125.812 56.5696ZM125.777 57.3903C124.689 57.3903 123.747 58.1695 123.747 59.6812C123.747 61.1928 124.632 61.9597 125.719 61.9597C126.807 61.9597 127.859 61.1708 127.859 59.6812C127.859 58.1915 126.862 57.3903 125.774 57.3903H125.777Z" fill="#C62037"/>
<path d="M138.278 56.6675L136.338 62.6848H135.286L133.895 57.9072L132.505 62.6848H131.44L129.49 56.6675H130.543L131.966 61.6876L133.412 56.6675H134.467L135.835 61.6974L137.248 56.6675H138.28H138.278Z" fill="#C62037"/>
<path d="M144.625 60.9625C144.267 61.9377 143.347 62.7829 141.834 62.7829C140.085 62.7829 138.852 61.5554 138.852 59.6812C138.852 57.8069 140.085 56.5696 141.911 56.5696C143.738 56.5696 144.838 57.7873 144.838 59.4312C144.838 59.6174 144.828 59.8159 144.793 60.0242H139.894C139.949 61.2516 140.756 61.9646 141.834 61.9646C142.718 61.9646 143.279 61.526 143.527 60.9674H144.625V60.9625ZM143.773 59.2965C143.763 58.1131 142.911 57.3903 141.834 57.3903C140.756 57.3903 139.984 58.0911 139.907 59.2965H143.773Z" fill="#C62037"/>
<path d="M147.128 57.6868C147.464 56.9959 148.07 56.5696 149 56.5696V57.6109H148.732C147.757 57.6109 147.128 58.0176 147.128 59.3969V62.6849H146.108V56.6676H147.128V57.6868Z" fill="#C62037"/>
<path d="M49.6366 5.03516C49.2056 5.03516 48.7947 5.20176 48.489 5.50067L47.1058 6.8531C46.8026 7.14956 46.6297 7.55381 46.6297 7.97522V42.2074H51.2152V23.6213H69.8656V19.1377H51.2152V5.03516H49.6341H49.6366Z" fill="#C62037"/>
<path d="M74.4536 0.551514H54.2246C53.7936 0.551514 53.3802 0.718117 53.077 1.01702L51.6938 2.36946C51.3906 2.66591 51.2177 3.07017 51.2177 3.49158V5.03757H74.4536V0.551514Z" fill="#C62037"/>
<path d="M134.97 42.2563C127.235 42.2563 120.94 37.0548 120.94 30.6602H125.674C125.674 34.5019 129.843 37.6282 134.97 37.6282C140.097 37.6282 144.267 34.5019 144.267 30.6602C144.267 28.487 142.675 26.3849 140.308 25.4244C138.676 24.7629 136.875 24.4126 134.968 24.0377C132.991 23.6506 130.946 23.2512 128.951 22.4721C124.085 20.5709 120.94 16.4964 120.94 12.0961C120.94 5.70147 127.235 0.5 134.97 0.5C142.706 0.5 149 5.70147 149 12.0961H144.267C144.267 8.25443 140.097 5.12816 134.97 5.12816C129.843 5.12816 125.674 8.25443 125.674 12.0961C125.674 14.5927 127.651 16.9791 130.708 18.1747C132.299 18.797 134.046 19.1376 135.895 19.5002C137.942 19.8996 140.059 20.3136 142.117 21.1491C146.296 22.8421 148.997 26.576 148.997 30.6602C148.997 37.0548 142.703 42.2563 134.968 42.2563H134.97Z" fill="#C62037"/>
<path d="M96.9153 42.1877C85.5918 42.1877 76.3806 32.853 76.3806 21.3769C76.3806 9.90087 85.5943 0.568604 96.9153 0.568604C108.236 0.568604 117.45 9.90332 117.45 21.3794C117.45 32.8555 108.239 42.1902 96.9153 42.1902V42.1877ZM96.9153 5.19676C88.2028 5.19676 81.114 12.4563 81.114 21.3794C81.114 30.3025 88.2028 37.562 96.9153 37.562C105.628 37.562 112.717 30.3025 112.717 21.3794C112.717 12.4563 105.628 5.19676 96.9153 5.19676Z" fill="#C62037"/>
<path d="M20.5347 42.1877C9.21117 42.1877 0 32.853 0 21.3794C0 9.90577 9.21117 0.568604 20.5347 0.568604C31.8582 0.568604 41.0694 9.90332 41.0694 21.3794C41.0694 32.8555 31.8582 42.1902 20.5347 42.1902V42.1877ZM20.5347 5.19676C11.8222 5.19676 4.73338 12.4563 4.73338 21.3794C4.73338 30.3025 11.8222 37.562 20.5347 37.562C29.2472 37.562 36.336 30.3025 36.336 21.3794C36.336 12.4563 29.2472 5.19676 20.5347 5.19676Z" fill="#C62037"/>
</g>
<defs>
<clipPath id="clip0_4114_964">
<rect width="149" height="65" fill="white" transform="translate(0 0.5)"/>
</clipPath>
</defs>
</svg>
